<?xml version="1.0" encoding="utf-8"?>
<!-- Generator: Adobe Illustrator 21.0.0, SVG Export Plug-In . SVG Version: 6.00 Build 0)  -->
<svg version="1.1" id="图层_1" xmlns="http://www.w3.org/2000/svg" xmlns:xlink="http://www.w3.org/1999/xlink" x="0px" y="0px"
	 viewBox="0 0 500 500" style="enable-background:new 0 0 500 500;" xml:space="preserve">
<style type="text/css">
	.st0{fill:#EB7F00;}
</style>
<path class="st0" d="M374.9,480l-119.3-66.2c-4.1-2.3-9-2.3-13.1,0L123.1,480c-9.8,5.5-21.7-2.8-19.9-14l23.1-142.3
	c0.7-4.2-0.7-8.5-3.6-11.6L24.2,210.8c-7.6-7.9-3.2-21.1,7.6-22.7l134.9-20.7c4.4-0.7,8.3-3.5,10.2-7.6l59.8-127.9
	c4.8-10.4,19.6-10.4,24.4,0L321,159.8c1.9,4.1,5.7,6.9,10.2,7.6l134.9,20.7c10.8,1.7,15.3,14.9,7.6,22.7l-98.5,101.3
	c-3,3.1-4.3,7.4-3.6,11.6L394.7,466C396.5,477.1,384.7,485.4,374.9,480z"/>
</svg>
